<?xml version="1.0" encoding="utf-8"?>
<!-- Generator: Adobe Illustrator 19.2.1, SVG Export Plug-In . SVG Version: 6.00 Build 0)  -->
<svg version="1.1" id="Layer_1" xmlns="http://www.w3.org/2000/svg" xmlns:xlink="http://www.w3.org/1999/xlink" x="0px" y="0px"
	 viewBox="0 0 173 173" style="enable-background:new 0 0 173 173;" xml:space="preserve">
<style type="text/css">
	.st0{fill:#FFCE06;}
</style>
<path class="st0" d="M86.5,0C38.7,0,0,38.7,0,86.5S38.7,173,86.5,173S173,134.3,173,86.5S134.3,0,86.5,0z M86.5,7.7
	c1.6,0,2.8,3.6,2.8,8s-1.3,8-2.8,8s-2.8-3.6-2.8-8S84.9,7.7,86.5,7.7z M86.5,31c7.8,0,14.2,6.3,14.2,14.2s-6.3,27.2-14.2,27.2
	S72.3,53,72.3,45.2S78.7,31,86.5,31z M26.7,67.1c-0.5,1.5-4.3,1.6-8.5,0.2c-4.2-1.4-7.2-3.7-6.7-5.2c0.5-1.5,4.3-1.6,8.5-0.2
	C24.2,63.3,27.2,65.6,26.7,67.1z M33.7,69.3c2.4-7.4,10.4-11.5,17.9-9.1C59,62.7,75.4,74.7,73,82.1c-2.4,7.4-22.8,7.5-30.2,5.1
	C35.4,84.8,31.3,76.8,33.7,69.3z M47.1,145.5c-2.6,3.6-5.7,5.7-7,4.8c-1.3-0.9-0.2-4.6,2.4-8.1c2.6-3.6,5.7-5.7,7-4.8
	S49.7,141.9,47.1,145.5z M73.7,128.3c-4.6,6.3-13.5,7.7-19.8,3.1c-6.3-4.6-7.7-13.5-3.1-19.8c4.6-6.3,21.1-18.3,27.4-13.7
	C84.5,102.6,78.3,121.9,73.7,128.3z M77.6,86.5c0-4.9,4-8.9,8.9-8.9s8.9,4,8.9,8.9s-4,8.9-8.9,8.9S77.6,91.4,77.6,86.5z
	 M119.1,131.4c-6.3,4.6-15.2,3.2-19.8-3.1c-4.6-6.3-10.8-25.7-4.5-30.3c6.3-4.6,22.8,7.3,27.4,13.7
	C126.9,118,125.5,126.8,119.1,131.4z M132.8,150.3c-1.3,0.9-4.4-1.2-7-4.8c-2.6-3.6-3.7-7.2-2.4-8.1s4.4,1.2,7,4.8
	C133,145.7,134.1,149.4,132.8,150.3z M130.2,87.2c-7.4,2.4-27.8,2.4-30.2-5.1c-2.4-7.4,14-19.5,21.5-21.9c7.4-2.4,15.4,1.7,17.9,9.1
	C141.7,76.8,137.6,84.8,130.2,87.2z M154.8,67.3c-4.2,1.4-8,1.3-8.5-0.2s2.5-3.8,6.7-5.2c4.2-1.4,8-1.3,8.5,0.2
	C162,63.6,159,65.9,154.8,67.3z"/>
</svg>
