<?xml version="1.0" encoding="utf-8"?>
<!-- Generator: Adobe Illustrator 19.2.1, SVG Export Plug-In . SVG Version: 6.00 Build 0)  -->
<svg version="1.1" id="Layer_1" xmlns="http://www.w3.org/2000/svg" xmlns:xlink="http://www.w3.org/1999/xlink" x="0px" y="0px"
	 viewBox="0 0 173 173" style="enable-background:new 0 0 173 173;" xml:space="preserve">
<style type="text/css">
	.st0{fill:#FFCE06;}
	.st1{fill:#FFF5CB;}
</style>
<circle class="st0" cx="86.5" cy="86.5" r="86.5"/>
<circle class="st1" cx="86.5" cy="86.5" r="8.9"/>
<path class="st1" d="M100.7,45.2c0,7.8-6.3,27.2-14.2,27.2S72.3,53,72.3,45.2S78.7,31,86.5,31S100.7,37.3,100.7,45.2z"/>
<path class="st1" d="M130.2,87.2c-7.4,2.4-27.8,2.4-30.2-5.1c-2.4-7.4,14-19.5,21.5-21.9c7.4-2.4,15.4,1.7,17.9,9.1
	C141.7,76.8,137.6,84.8,130.2,87.2z"/>
<path class="st1" d="M99.3,128.3c-4.6-6.3-10.8-25.7-4.5-30.3c6.3-4.6,22.8,7.3,27.4,13.7c4.6,6.3,3.2,15.2-3.1,19.8
	C112.8,136,103.9,134.6,99.3,128.3z"/>
<path class="st1" d="M50.7,111.6c4.6-6.3,21.1-18.3,27.4-13.7c6.3,4.6,0.1,24-4.5,30.3c-4.6,6.3-13.5,7.7-19.8,3.1
	C47.5,126.8,46.1,118,50.7,111.6z"/>
<path class="st1" d="M51.6,60.2C59,62.7,75.4,74.7,73,82.1c-2.4,7.4-22.8,7.5-30.2,5.1c-7.4-2.4-11.5-10.4-9.1-17.9
	S44.1,57.8,51.6,60.2z"/>
<ellipse class="st1" cx="86.5" cy="15.7" rx="2.8" ry="8"/>
<ellipse transform="matrix(0.9511 -0.309 0.309 0.9511 -12.4333 50.7135)" class="st1" cx="153.9" cy="64.6" rx="8" ry="2.8"/>
<ellipse transform="matrix(0.809 -0.5878 0.5878 0.809 -60.0601 102.7869)" class="st1" cx="128.1" cy="143.8" rx="2.8" ry="8"/>
<ellipse transform="matrix(0.5878 -0.809 0.809 0.5878 -97.8591 95.5735)" class="st1" cx="44.9" cy="143.8" rx="8" ry="2.8"/>
<ellipse transform="matrix(0.309 -0.9511 0.9511 0.309 -48.233 62.8271)" class="st1" cx="19.1" cy="64.6" rx="2.8" ry="8"/>
</svg>
